<?xml version="1.0" standalone="no"?>
<!DOCTYPE svg PUBLIC "-//W3C//DTD SVG 20010904//EN"
 "http://www.w3.org/TR/2001/REC-SVG-20010904/DTD/svg10.dtd">
<svg version="1.0" xmlns="http://www.w3.org/2000/svg"
 width="481.000000pt" height="481.000000pt" viewBox="0 0 481.000000 481.000000"
 preserveAspectRatio="xMidYMid meet">
<metadata>
Created by potrace 1.14, written by Peter Selinger 2001-2017
</metadata>
<g transform="translate(0.000000,481.000000) scale(0.100000,-0.100000)"
fill="#000000" stroke="none">
<path d="M2635 4159 c-12 -6 -26 -18 -32 -28 -6 -10 -91 -292 -188 -627 -97
-335 -275 -946 -395 -1359 -396 -1364 -381 -1310 -371 -1338 6 -14 20 -32 33
-40 26 -16 436 -137 465 -137 27 0 63 28 74 58 5 14 57 190 115 391 58 201
145 503 194 671 48 168 131 456 185 640 53 184 109 378 125 430 16 52 50 167
75 255 117 402 137 472 190 655 32 107 59 203 62 212 8 29 -6 67 -31 83 -22
14 -386 126 -453 138 -15 3 -37 1 -48 -4z"/>
<path d="M1182 3358 c-60 -56 -312 -291 -422 -394 -599 -561 -585 -547 -561
-592 13 -25 136 -143 610 -586 227 -213 424 -392 437 -398 35 -16 76 5 135 70
28 31 100 109 160 174 98 105 109 121 109 154 0 44 26 18 -364 359 -151 132
-275 245 -275 251 -1 7 140 136 313 289 173 152 317 283 320 292 22 57 5 81
-253 346 -108 110 -124 113 -209 35z"/>
<path d="M3402 3303 c-250 -262 -264 -282 -221 -337 16 -20 455 -412 603 -537
l31 -27 -36 -33 c-19 -19 -145 -131 -280 -249 -317 -279 -339 -301 -339 -333
0 -29 18 -50 219 -266 64 -68 126 -127 139 -132 12 -5 32 -5 45 0 27 11 1027
946 1045 978 29 52 47 32 -627 663 -425 399 -403 380 -443 380 -29 0 -45 -13
-136 -107z"/>
</g>
</svg>
